<?xml version="1.0" encoding="utf-8"?>
<!-- Generator: Adobe Illustrator 21.0.0, SVG Export Plug-In . SVG Version: 6.00 Build 0)  -->
<svg version="1.1" id="Layer_1" xmlns="http://www.w3.org/2000/svg" xmlns:xlink="http://www.w3.org/1999/xlink" x="0px" y="0px"
	 viewBox="0 0 217 217" style="enable-background:new 0 0 217 217;" xml:space="preserve">
<style type="text/css">
	.st0{fill:url(#SVGID_1_);}
	.st1{fill:url(#SVGID_2_);}
</style>
<g>
	<g>
		<g>
			<g>
				<g>
					<g>
						<g>
							<linearGradient id="SVGID_1_" gradientUnits="userSpaceOnUse" x1="16.275" y1="108.5" x2="200.725" y2="108.5">
								<stop  offset="0" style="stop-color:#FFFFFF"/>
								<stop  offset="1" style="stop-color:#000000"/>
							</linearGradient>
							<path class="st0" d="M108.5,200.7c-50.8,0-92.2-41.4-92.2-92.2s41.4-92.2,92.2-92.2s92.2,41.4,92.2,92.2
								S159.3,200.7,108.5,200.7z M108.5,28.6c-44.1,0-79.9,35.8-79.9,79.9s35.8,79.9,79.9,79.9s79.9-35.8,79.9-79.9
								S152.6,28.6,108.5,28.6z"/>
						</g>
					</g>
				</g>
				<g>
					<g>
						<g>
							<linearGradient id="SVGID_2_" gradientUnits="userSpaceOnUse" x1="102.177" y1="82.8702" x2="143.0917" y2="82.8702">
								<stop  offset="0" style="stop-color:#FFFFFF"/>
								<stop  offset="1" style="stop-color:#000000"/>
							</linearGradient>
							<path class="st1" d="M142.6,57.3c1.1-2,0.4-4.3-1.5-5.4c-2-1.1-4.3-0.4-5.4,1.3l-32.5,52.1c0,0.2-0.2,0.2-0.2,0.4
								c-0.9,1.5-0.9,3.5-0.2,5c0.4,1.3,1.5,2.4,2.6,3c0.4,0.2,0.7,0.4,1.1,0.4c2.8,0.9,6.1-0.4,7.6-3.3L142.6,57.3z"/>
						</g>
					</g>
				</g>
			</g>
		</g>
	</g>
</g>
</svg>
